<?xml version="1.0" standalone="no"?>
<!DOCTYPE svg PUBLIC "-//W3C//DTD SVG 20010904//EN"
 "http://www.w3.org/TR/2001/REC-SVG-20010904/DTD/svg10.dtd">
<svg version="1.0" xmlns="http://www.w3.org/2000/svg"
 width="512.000000pt" height="512.000000pt" viewBox="0 0 512.000000 512.000000"
 preserveAspectRatio="xMidYMid meet">

<g transform="translate(0.000000,512.000000) scale(0.100000,-0.100000)"
fill="#000000" stroke="none">
<path d="M2055 5109 c-589 -60 -1142 -352 -1517 -799 -478 -570 -649 -1323
-463 -2045 234 -909 1005 -1580 1943 -1690 480 -56 959 41 1396 284 l78 44
397 -396 c278 -279 413 -406 455 -431 148 -89 337 -96 496 -19 72 35 188 151
223 223 77 159 70 348 -19 496 -25 42 -152 177 -431 455 l-396 397 37 67 c220
393 317 783 303 1215 -13 360 -86 648 -245 965 -105 211 -240 393 -427 580
-193 193 -381 327 -621 442 -203 96 -420 163 -644 198 -125 19 -439 27 -565
14z m468 -524 c282 -42 515 -131 739 -281 419 -281 697 -728 768 -1233 15
-108 15 -355 0 -462 -59 -409 -236 -760 -528 -1041 -272 -262 -606 -423 -991
-478 -107 -15 -354 -15 -462 0 -505 71 -952 349 -1233 768 -195 291 -296 623
-296 975 0 481 179 915 515 1252 273 273 602 438 999 500 116 18 366 18 489 0z"/>
<path d="M2194 4109 c-45 -13 -129 -91 -150 -141 -18 -41 -19 -99 -22 -1284
l-2 -1241 96 -13 c92 -12 309 -9 392 6 l32 6 -2 1247 -3 1246 -22 41 c-29 55
-78 103 -128 125 -43 20 -137 24 -191 8z"/>
<path d="M1215 3376 c-63 -29 -102 -68 -131 -131 l-24 -50 0 -543 0 -544 52
-76 c70 -103 263 -294 368 -365 l85 -58 3 793 c3 892 7 844 -73 923 -74 75
-187 95 -280 51z"/>
<path d="M3167 2956 c-82 -30 -138 -86 -165 -165 -9 -24 -12 -196 -12 -608 l0
-575 38 23 c137 81 310 243 410 384 l62 88 0 336 c0 306 -2 340 -19 377 -23
51 -76 104 -127 129 -50 24 -138 29 -187 11z"/>
</g>
</svg>
